<?xml version="1.0" encoding="iso-8859-1"?>
<!-- Uploaded to: SVG Repo, www.svgrepo.com, Generator: SVG Repo Mixer Tools -->
<svg height="800px" width="800px" version="1.1" id="Capa_1" xmlns="http://www.w3.org/2000/svg" xmlns:xlink="http://www.w3.org/1999/xlink" 
	 viewBox="0 0 293.334 293.334" xml:space="preserve">
<g>
	<g>
		<path style="fill:#B52D33;" d="M146.667,0C94.903,0,52.946,41.957,52.946,93.721c0,22.322,7.849,42.789,20.891,58.878
			c4.204,5.178,11.237,13.331,14.903,18.906c21.109,32.069,48.19,78.643,56.082,116.864c1.354,6.527,2.986,6.641,4.743,0.212
			c5.629-20.609,20.228-65.639,50.377-112.757c3.595-5.619,10.884-13.483,15.409-18.379c6.554-7.098,12.009-15.224,16.154-24.084
			c5.651-12.086,8.882-25.466,8.882-39.629C240.387,41.962,198.43,0,146.667,0z M146.667,144.358
			c-28.892,0-52.313-23.421-52.313-52.313c0-28.887,23.421-52.307,52.313-52.307s52.313,23.421,52.313,52.307
			C198.98,120.938,175.559,144.358,146.667,144.358z"/>
			<path style="fill:#B52D33;" transform="translate(95,40), scale(0.1)" d="M908.1 353.1l-253.9-36.9L540.7 86.1c-3.1-6.3-8.2-11.4-14.5-14.5-15.8-7.8-35-1.3-42.9 14.5L369.8 316.2l-253.9 36.9c-7 1-13.4 4.3-18.3 9.3a32.05 32.05 0 00.6 45.3l183.7 179.1-43.4 252.9a31.95 31.95 0 0046.4 33.7L512 754l227.1 119.4c6.2 3.3 13.4 4.4 20.3 3.2 17.4-3 29.1-19.5 26.1-36.9l-43.4-252.9 183.7-179.1c5-4.9 8.3-11.3 9.3-18.3 2.7-17.5-9.5-33.7-27-36.3z" />
	</g>
</g>
</svg>