<?xml version="1.0" encoding="iso-8859-1"?>
<!-- Uploaded to: SVG Repo, www.svgrepo.com, Generator: SVG Repo Mixer Tools -->
<svg height="800px" width="800px" version="1.1" id="Capa_1" xmlns="http://www.w3.org/2000/svg" xmlns:xlink="http://www.w3.org/1999/xlink" 
	 viewBox="0 0 293.334 293.334" xml:space="preserve">
<g>
	<g>
		<path style="fill:#DE5376;" d="M146.667,0C94.903,0,52.946,41.957,52.946,93.721c0,22.322,7.849,42.789,20.891,58.878
			c4.204,5.178,11.237,13.331,14.903,18.906c21.109,32.069,48.19,78.643,56.082,116.864c1.354,6.527,2.986,6.641,4.743,0.212
			c5.629-20.609,20.228-65.639,50.377-112.757c3.595-5.619,10.884-13.483,15.409-18.379c6.554-7.098,12.009-15.224,16.154-24.084
			c5.651-12.086,8.882-25.466,8.882-39.629C240.387,41.962,198.43,0,146.667,0z M146.667,144.358
			c-28.892,0-52.313-23.421-52.313-52.313c0-28.887,23.421-52.307,52.313-52.307s52.313,23.421,52.313,52.307
			C198.98,120.938,175.559,144.358,146.667,144.358z"/>
			<path style="fill:#DE5376;" transform="translate(99,50), scale(0.15)" d="M184 88c0 30.9-25.1 56-56 56s-56-25.1-56-56 25.1-56 56-56 56 25.1 56 56zM64 245.7c-10 11.2-16 26.1-16 42.3s6 31.1 16 42.3v-84.6zm144.4-49.3C178.7 222.7 160 261.2 160 304c0 34.3 12 65.8 32 90.5V416c0 17.7-14.3 32-32 32H96c-17.7 0-32-14.3-32-32v-26.8C26.2 371.2 0 332.7 0 288c0-61.9 50.1-112 112-112h32c24 0 46.2 7.5 64.4 20.3zM448 416v-21.5c20-24.7 32-56.2 32-90.5 0-42.8-18.7-81.3-48.4-107.7C449.8 183.5 472 176 496 176h32c61.9 0 112 50.1 112 112 0 44.7-26.2 83.2-64 101.2V416c0 17.7-14.3 32-32 32h-64c-17.7 0-32-14.3-32-32zM568 88c0 30.9-25.1 56-56 56s-56-25.1-56-56 25.1-56 56-56 56 25.1 56 56zm8 157.7v84.7c10-11.3 16-26.1 16-42.3s-6-31.1-16-42.3zM320 160c-35.3 0-64-28.7-64-64s28.7-64 64-64 64 28.7 64 64-28.7 64-64 64zm-80 144c0 16.2 6 31 16 42.3v-84.6c-10 11.3-16 26.1-16 42.3zm144-42.3v84.7c10-11.3 16-26.1 16-42.3s-6-31.1-16-42.3zm64 42.3c0 44.7-26.2 83.2-64 101.2V448c0 17.7-14.3 32-32 32h-64c-17.7 0-32-14.3-32-32v-42.8c-37.8-18-64-56.5-64-101.2 0-61.9 50.1-112 112-112h32c61.9 0 112 50.1 112 112z" />
	</g>
</g>
</svg>