<?xml version="1.0" encoding="iso-8859-1"?>
<!-- Uploaded to: SVG Repo, www.svgrepo.com, Generator: SVG Repo Mixer Tools -->
<svg height="800px" width="800px" version="1.1" id="Capa_1" xmlns="http://www.w3.org/2000/svg" xmlns:xlink="http://www.w3.org/1999/xlink" 
	 viewBox="0 0 293.334 293.334" xml:space="preserve">
<g>
	<g>
		<path style="fill:#3B8C3C;" d="M146.667,0C94.903,0,52.946,41.957,52.946,93.721c0,22.322,7.849,42.789,20.891,58.878
		c4.204,5.178,11.237,13.331,14.903,18.906c21.109,32.069,48.19,78.643,56.082,116.864c1.354,6.527,2.986,6.641,4.743,0.212
		c5.629-20.609,20.228-65.639,50.377-112.757c3.595-5.619,10.884-13.483,15.409-18.379c6.554-7.098,12.009-15.224,16.154-24.084
		c5.651-12.086,8.882-25.466,8.882-39.629C240.387,41.962,198.43,0,146.667,0z M146.667,144.358
		c-28.892,0-52.313-23.421-52.313-52.313c0-28.887,23.421-52.307,52.313-52.307s52.313,23.421,52.313,52.307
		C198.98,120.938,175.559,144.358,146.667,144.358z"/>
		<path transform="translate(105,44), scale(5)" style="fill:#3B8C3C;" d="M6.428 1.151C6.708.591 7.213 0 8 0s1.292.592 1.572 1.151C9.861 1.73 10 2.431 10 3v3.691l5.17 2.585a1.5 1.5 0 01.83 1.342V12a.5.5 0 01-.582.493l-5.507-.918-.375 2.253 1.318 1.318A.5.5 0 0110.5 16h-5a.5.5 0 01-.354-.854l1.319-1.318-.376-2.253-5.507.918A.5.5 0 010 12v-1.382a1.5 1.5 0 01.83-1.342L6 6.691V3c0-.568.14-1.271.428-1.849z" />
	</g>
</g>
</svg>