<?xml version="1.0" encoding="iso-8859-1"?>
<!-- Uploaded to: SVG Repo, www.svgrepo.com, Generator: SVG Repo Mixer Tools -->
<svg height="800px" width="800px" version="1.1" id="Capa_1" xmlns="http://www.w3.org/2000/svg" xmlns:xlink="http://www.w3.org/1999/xlink" 
	 viewBox="0 0 293.334 293.334" xml:space="preserve">
<g>
	<g>
		<path style="fill:#BA276A;" d="M146.667,0C94.903,0,52.946,41.957,52.946,93.721c0,22.322,7.849,42.789,20.891,58.878
			c4.204,5.178,11.237,13.331,14.903,18.906c21.109,32.069,48.19,78.643,56.082,116.864c1.354,6.527,2.986,6.641,4.743,0.212
			c5.629-20.609,20.228-65.639,50.377-112.757c3.595-5.619,10.884-13.483,15.409-18.379c6.554-7.098,12.009-15.224,16.154-24.084
			c5.651-12.086,8.882-25.466,8.882-39.629C240.387,41.962,198.43,0,146.667,0z M146.667,144.358
			c-28.892,0-52.313-23.421-52.313-52.313c0-28.887,23.421-52.307,52.313-52.307s52.313,23.421,52.313,52.307
			C198.98,120.938,175.559,144.358,146.667,144.358z"/>
			<path style="fill:#BA276A;" transform="translate(100,55), scale(0.15)" d="M399.3 509.7c-58.2-8.8-108.2-72.8-137.6-119.7-20-31.9-25.1-70.3-19.6-107.7L266.3 118c1.4-9.8 5.1-19.2 12.9-25.2 20.2-15.6 72.4-41.5 185.1-24.5s155.2 57.4 170 78.3c5.7 8 6.5 18.1 5.1 27.9l-24.2 164.3c-5.5 37.3-21.5 72.6-49.8 97.2-41.7 36.1-108 82.5-166.1 73.7zM416.4 232c.1-.5.2-1.1.3-1.6 3.2-21.8-11.6-42-33.1-45.3s-41.5 11.8-44.7 33.5c-.1.5-.1 1.1-.2 1.6-.6 5.4 5.2 8.4 10.3 6.7 9-3 18.8-3.9 28.7-2.4s19.1 5.3 26.8 10.8c4.4 3.1 10.8 2 11.8-3.3zM529 254.2c4.4 3.1 10.8 2 11.8-3.3.1-.5.2-1.1.3-1.6 3.2-21.8-11.6-42-33.1-45.3s-41.5 11.8-44.7 33.5c-.1.5-.1 1.1-.2 1.6-.6 5.4 5.2 8.4 10.3 6.7 9-3 18.8-3.9 28.7-2.4s19.1 5.3 26.8 10.8zm-11.5 85.2c-28.8 12.8-61.4 17.8-94.9 12.8s-63.2-19.5-87-40.3c-6.3-5.5-16.2-1.7-15.2 6.7 5.9 48.5 43 89.1 93 96.7s97.2-20.2 116.8-64.9c3.4-7.7-5-14.3-12.6-10.9zM240.7 446.9c-58.2 8.8-124.5-37.5-166.1-73.7-28.3-24.5-44.3-59.8-49.8-97.2L.6 111.8C-.8 102 0 91.9 5.7 83.9 20.5 63 63 22.7 175.7 5.6s164.9 8.9 185.1 24.5c.9.7 1.7 1.4 2.4 2.1-52.8 4.8-85.1 21-103.6 35.3-17 13.1-23 32-25 45.9l-19.3 131.3c-2.6.1-5.2.4-7.9.8-35.2 5.3-61.8 32.7-68.2 66.3-1.6 8.2 8.3 12.2 14.8 7 15.6-12.4 34.1-21.3 54.7-25.4-3 38.4 4 78.7 25.9 113.6 6.9 11 15 23.1 24.2 35.4-5.9 2.1-11.9 3.6-18 4.5zM174.1 157c-1-5.3-7.4-6.4-11.8-3.3-7.7 5.5-16.8 9.3-26.8 10.8s-19.8.6-28.7-2.4c-5.1-1.7-10.9 1.3-10.3 6.7.1.5.1 1.1.2 1.6 3.2 21.8 23.2 36.8 44.7 33.5s36.3-23.5 33.1-45.3c-.1-.5-.2-1.1-.3-1.6z" />
	</g>
</g>
</svg>