<?xml version="1.0" encoding="iso-8859-1"?>
<!-- Uploaded to: SVG Repo, www.svgrepo.com, Generator: SVG Repo Mixer Tools -->
<svg height="800px" width="800px" version="1.1" id="Capa_1" xmlns="http://www.w3.org/2000/svg" xmlns:xlink="http://www.w3.org/1999/xlink" 
	 viewBox="0 0 293.334 293.334" xml:space="preserve">
<g>
	<g>
		<path style="fill:#757575;" d="M146.667,0C94.903,0,52.946,41.957,52.946,93.721c0,22.322,7.849,42.789,20.891,58.878
			c4.204,5.178,11.237,13.331,14.903,18.906c21.109,32.069,48.19,78.643,56.082,116.864c1.354,6.527,2.986,6.641,4.743,0.212
			c5.629-20.609,20.228-65.639,50.377-112.757c3.595-5.619,10.884-13.483,15.409-18.379c6.554-7.098,12.009-15.224,16.154-24.084
			c5.651-12.086,8.882-25.466,8.882-39.629C240.387,41.962,198.43,0,146.667,0z M146.667,144.358
			c-28.892,0-52.313-23.421-52.313-52.313c0-28.887,23.421-52.307,52.313-52.307s52.313,23.421,52.313,52.307
			C198.98,120.938,175.559,144.358,146.667,144.358z"/>
			<path
        fillRule="evenodd"
				style="fill:#757575;"
				transform="translate(100,40), scale(6)"
        d="M4.475 5.458c-.284 0-.514-.237-.47-.517C4.28 3.24 5.576 2 7.825 2c2.25 0 3.767 1.36 3.767 3.215 0 1.344-.665 2.288-1.79 2.973-1.1.659-1.414 1.118-1.414 2.01v.03a.5.5 0 01-.5.5h-.77a.5.5 0 01-.5-.495l-.003-.2c-.043-1.221.477-2.001 1.645-2.712 1.03-.632 1.397-1.135 1.397-2.028 0-.979-.758-1.698-1.926-1.698-1.009 0-1.71.529-1.938 1.402-.066.254-.278.461-.54.461h-.777zM7.496 14c.622 0 1.095-.474 1.095-1.09 0-.618-.473-1.092-1.095-1.092-.606 0-1.087.474-1.087 1.091S6.89 14 7.496 14z"
      />
	</g>
</g>
</svg>