<?xml version="1.0" encoding="iso-8859-1"?>
<!-- Uploaded to: SVG Repo, www.svgrepo.com, Generator: SVG Repo Mixer Tools -->
<svg height="800px" width="800px" version="1.1" id="Capa_1" xmlns="http://www.w3.org/2000/svg" xmlns:xlink="http://www.w3.org/1999/xlink" 
	 viewBox="0 0 293.334 293.334" xml:space="preserve">
<g>
	<g>
		<path style="fill:#00A0D0;" d="M146.667,0C94.903,0,52.946,41.957,52.946,93.721c0,22.322,7.849,42.789,20.891,58.878
			c4.204,5.178,11.237,13.331,14.903,18.906c21.109,32.069,48.19,78.643,56.082,116.864c1.354,6.527,2.986,6.641,4.743,0.212
			c5.629-20.609,20.228-65.639,50.377-112.757c3.595-5.619,10.884-13.483,15.409-18.379c6.554-7.098,12.009-15.224,16.154-24.084
			c5.651-12.086,8.882-25.466,8.882-39.629C240.387,41.962,198.43,0,146.667,0z M146.667,144.358
			c-28.892,0-52.313-23.421-52.313-52.313c0-28.887,23.421-52.307,52.313-52.307s52.313,23.421,52.313,52.307
			C198.98,120.938,175.559,144.358,146.667,144.358z"/>
      <path style="fill:#00A0D0;" transform="translate(102,35), scale(0.1)" d="M888.188 514c10.667 10.667 14.333 19.667 11 27-3.333 7.333-12.333 11-27 11h-84v310c0 9.333-.333 16.333-1 21-.667 4.667-3.333 9-8 13s-12.333 6-23 6h-204V592h-204v310h-194c-18.667 0-30.333-3.333-35-10-4.668-6.667-7-16.667-7-30V552h-84c-14.667 0-23.668-3.667-27-11-3.333-7.333.333-16.333 11-27l400-402c10.667-10.667 23.333-16 38-16 14.667 0 27.333 5.333 38 16l400 402" />
	</g>
</g>
</svg>