<?xml version="1.0" encoding="iso-8859-1"?>
<!-- Uploaded to: SVG Repo, www.svgrepo.com, Generator: SVG Repo Mixer Tools -->
<svg height="800px" width="800px" version="1.1" id="Capa_1" xmlns="http://www.w3.org/2000/svg" xmlns:xlink="http://www.w3.org/1999/xlink" 
	 viewBox="0 0 293.334 293.334" xml:space="preserve">
<g>
	<g>
		<path style="fill:#1C476F;" d="M146.667,0C94.903,0,52.946,41.957,52.946,93.721c0,22.322,7.849,42.789,20.891,58.878
			c4.204,5.178,11.237,13.331,14.903,18.906c21.109,32.069,48.19,78.643,56.082,116.864c1.354,6.527,2.986,6.641,4.743,0.212
			c5.629-20.609,20.228-65.639,50.377-112.757c3.595-5.619,10.884-13.483,15.409-18.379c6.554-7.098,12.009-15.224,16.154-24.084
			c5.651-12.086,8.882-25.466,8.882-39.629C240.387,41.962,198.43,0,146.667,0z M146.667,144.358
			c-28.892,0-52.313-23.421-52.313-52.313c0-28.887,23.421-52.307,52.313-52.307s52.313,23.421,52.313,52.307
			C198.98,120.938,175.559,144.358,146.667,144.358z"/>
			<path style="fill:#1C476F;" transform="translate(101, 48), scale(0.09)" d="M974.734,711.407h-35.723v-35.722h-35.722V282.852h35.722v-71.444h71.444l-500-178.556l-500,178.556H81.9v71.444h35.723
	v392.833H81.9v35.722H46.177v35.722H10.455v35.722h1000V747.13h-35.722V711.407z M296.177,675.685H189.011V282.852h107.166V675.685z
	 M474.734,675.685H367.622V282.852h107.111V675.685z M653.289,675.685H546.177V282.852h107.111V675.685z M831.9,675.685H724.734
	V282.852H831.9V675.685z"/>
	</g>
</g>
</svg>