<?xml version="1.0" encoding="iso-8859-1"?>
<!-- Uploaded to: SVG Repo, www.svgrepo.com, Generator: SVG Repo Mixer Tools -->
<svg height="800px" width="800px" version="1.1" id="Capa_1" xmlns="http://www.w3.org/2000/svg" xmlns:xlink="http://www.w3.org/1999/xlink" 
	 viewBox="0 0 293.334 293.334" xml:space="preserve">
<g>
	<g>
		<path style="fill:#2843C3;" d="M146.667,0C94.903,0,52.946,41.957,52.946,93.721c0,22.322,7.849,42.789,20.891,58.878
			c4.204,5.178,11.237,13.331,14.903,18.906c21.109,32.069,48.19,78.643,56.082,116.864c1.354,6.527,2.986,6.641,4.743,0.212
			c5.629-20.609,20.228-65.639,50.377-112.757c3.595-5.619,10.884-13.483,15.409-18.379c6.554-7.098,12.009-15.224,16.154-24.084
			c5.651-12.086,8.882-25.466,8.882-39.629C240.387,41.962,198.43,0,146.667,0z M146.667,144.358
			c-28.892,0-52.313-23.421-52.313-52.313c0-28.887,23.421-52.307,52.313-52.307s52.313,23.421,52.313,52.307
			C198.98,120.938,175.559,144.358,146.667,144.358z"/>
			<path style="fill:#2843C3;" transform="translate(105,45), scale(0.17)" d="M357.57 223.94a79.48 79.48 0 0056.58-23.44l77-76.95c6.09-6.09 6.65-16 .85-22.39a16 16 0 00-23.17-.56l-68.63 68.58a12.29 12.29 0 01-17.37 0c-4.79-4.78-4.53-12.86.25-17.64l68.33-68.33a16 16 0 00-.56-23.16A15.62 15.62 0 00440.27 56a16.71 16.71 0 00-11.81 4.9l-68.27 68.26a12.29 12.29 0 01-17.37 0c-4.78-4.78-4.53-12.86.25-17.64l68.33-68.31a16 16 0 00-.56-23.16A15.62 15.62 0 00400.26 16a16.73 16.73 0 00-11.81 4.9L311.5 97.85a79.49 79.49 0 00-23.44 56.59v8.23a16 16 0 01-4.69 11.33l-35.61 35.62a4 4 0 01-5.66 0L68.82 36.33a16 16 0 00-22.58-.06C31.09 51.28 23 72.47 23 97.54c-.1 41.4 21.66 89 56.79 124.08l85.45 85.45A64.79 64.79 0 00211 326a64 64 0 0016.21-2.08 16.24 16.24 0 014.07-.53 15.93 15.93 0 0110.83 4.25l11.39 10.52a16.12 16.12 0 014.6 11.23v5.54a47.73 47.73 0 0013.77 33.65l90.05 91.57.09.1a53.29 53.29 0 0075.36-75.37L302.39 269.9a4 4 0 010-5.66L338 228.63a16 16 0 0111.32-4.69z" />
      <path style="fill:#2843C3;" transform="translate(105,45), scale(0.17)" d="M211 358a97.32 97.32 0 01-68.36-28.25l-13.86-13.86a8 8 0 00-11.3 0l-85 84.56c-15.15 15.15-20.56 37.45-13.06 59.29a30.63 30.63 0 001.49 3.6C31 484 50.58 496 72 496a55.68 55.68 0 0039.64-16.44L225 365.66a4.69 4.69 0 001.32-3.72v-.26a4.63 4.63 0 00-5.15-4.27A97.09 97.09 0 01211 358z" />
	</g>
</g>
</svg>